<svg id="Layer_1" data-name="Layer 1" xmlns="http://www.w3.org/2000/svg" xmlns:xlink="http://www.w3.org/1999/xlink" viewBox="0 0 2002 2002"><defs><style>.cls-1{fill:#2d2d2d;}.cls-2{fill:url(#linear-gradient);}.cls-3{fill:url(#linear-gradient-2);}.cls-4{fill:url(#linear-gradient-3);}.cls-5{stroke:#fff;stroke-miterlimit:10;fill:url(#linear-gradient-4);}</style><linearGradient id="linear-gradient" x1="467.69" y1="1006.59" x2="1133.8" y2="1006.59" gradientUnits="userSpaceOnUse"><stop offset="0" stop-color="#f7931e"/><stop offset="1" stop-color="#ffbf00"/></linearGradient><linearGradient id="linear-gradient-2" x1="933.6" y1="532.46" x2="999.83" y2="532.46" xlink:href="#linear-gradient"/><linearGradient id="linear-gradient-3" x1="662.12" y1="1106.77" x2="1581.04" y2="1106.77" xlink:href="#linear-gradient"/><linearGradient id="linear-gradient-4" x1="73.51" y1="1024" x2="1973.51" y2="1024" gradientUnits="userSpaceOnUse"><stop offset="0" stop-color="#f15a24"/><stop offset="0.17" stop-color="#f26321"/><stop offset="0.45" stop-color="#f67d18"/><stop offset="0.8" stop-color="#fca609"/><stop offset="0.99" stop-color="#ffbf00"/></linearGradient></defs><title>logo</title><path class="cls-1" d="M1024,2024.5c-135.07,0-266.09-26.45-389.44-78.62a1004,1004,0,0,1-532.44-532.44C50,1290.09,23.5,1159.07,23.5,1024S50,757.91,102.12,634.56A1004,1004,0,0,1,634.56,102.12C757.91,50,888.93,23.5,1024,23.5S1290.09,50,1413.44,102.12a1004,1004,0,0,1,532.44,532.44C1998,757.91,2024.5,888.93,2024.5,1024s-26.45,266.09-78.62,389.44a1004,1004,0,0,1-532.44,532.44C1290.09,1998,1159.07,2024.5,1024,2024.5Z" transform="translate(-23 -23)"/><path d="M1024,24a1007.39,1007.39,0,0,1,201.54,20.32,994.52,994.52,0,0,1,357.57,150.47,1002.92,1002.92,0,0,1,362.31,440,995,995,0,0,1,58.27,187.71,1009.76,1009.76,0,0,1,0,403.07,994.51,994.51,0,0,1-150.47,357.57,1002.92,1002.92,0,0,1-440,362.31,995,995,0,0,1-187.71,58.27,1009.76,1009.76,0,0,1-403.07,0,994.51,994.51,0,0,1-357.57-150.47,1002.92,1002.92,0,0,1-362.31-440,995,995,0,0,1-58.27-187.71,1009.77,1009.77,0,0,1,0-403.07A994.52,994.52,0,0,1,194.78,464.89a1002.92,1002.92,0,0,1,440-362.31A995,995,0,0,1,822.46,44.32,1007.39,1007.39,0,0,1,1024,24h0m0-1h0C471.16,23,23,471.16,23,1024h0c0,552.84,448.16,1001,1001,1001h0c552.84,0,1001-448.16,1001-1001h0C2025,471.16,1576.84,23,1024,23Z" transform="translate(-23 -23)"/><path class="cls-2" d="M762.27,1211.14a25.56,25.56,0,0,0,3.59-22.16l-21.08-69.6a247.72,247.72,0,0,1-1.87-91.39h0a346.84,346.84,0,0,1,24-81.25l2.85-6.56a5.19,5.19,0,0,0-7.42-6.25l-31,18.73,3.1-12A214.67,214.67,0,0,1,768,862.54c12-17.27,22.82-30.08,22.82-30.08a5.77,5.77,0,0,0-6.31-8.92L748,834.36c7.8-13.66,28.26-30.23,108.79-8.92a288,288,0,0,1,50.58,18.67l22.06,10.56a461.31,461.31,0,0,0,50.78,19h0a425.92,425.92,0,0,0,50.52,12.23l5.53,1a107.3,107.3,0,0,0,25.66,1.45l.57,0a110,110,0,0,0,58.74-21.57l11-8.22a3.87,3.87,0,0,0-.42-6.49l-11.43-6.41a261.27,261.27,0,0,1-66.08-50.65l-4.28-4.54h0a63.56,63.56,0,0,1,2.23-58,131,131,0,0,0,15.36-41.66c7.82-42,4.89-47.9-96.06-101.12l-31.82-16.17a20,20,0,0,1-11.14-20.93l.48-3.38a113,113,0,0,1,12.85-37.82c10.71-19.72,10.78-46.37,4.48-52.25-2.08-1.94-6.84-3.75-9.6-1.57-16.8,13.3-15.43,11.93-16.8,13.3l-2.1,2a266.09,266.09,0,0,1-58.35,42.69h0c-1.77.77-3.53,1.56-5.3,2.33-145.4,63.42-241.2,165.08-285.4,323.33-5.31,19-11.51,53.88-11.51,53.88-22.3,128.19,26.32,226,64.54,286.8l11.18,17.8a22.26,22.26,0,0,1,1.39,21.1L521.25,1468.12a19.16,19.16,0,0,1-6,7.56l-16.62,12.46a14,14,0,0,0-4.33,5.38l-26.23,57.54a4,4,0,0,0,3.66,5.69h73.12a17.53,17.53,0,0,0,13.86-6.8l24-31a273.11,273.11,0,0,0,29.44-47.29c27-55.32,95.26-190.39,150.09-260.48Z" transform="translate(-23 -23)"/><path class="cls-3" d="M940.93,567.67l25,15.45c10.46,5.23,23.67-.36,26.39-11.73,0,0,18.57-77.23-2.84-90.31a18.31,18.31,0,0,0-23.73,10.4l-30.65,58.16A13.24,13.24,0,0,0,940.93,567.67Zm18.24-7.06,20.23-25.1a1.78,1.78,0,0,1,3.15,1.39l-3.92,32.61a5.4,5.4,0,0,1-7.86,4.13l-10-5.19A5.19,5.19,0,0,1,959.17,560.62Z" transform="translate(-23 -23)"/><path class="cls-4" d="M1577.25,625.78l-6.48-.31a270.77,270.77,0,0,0-108.58,16.87,319,319,0,0,0-92.51,54.18S1253.36,790.37,1225,946.77c-7.37,40.68-5.7,81.86-4.58,103h0q2.62,49.43,9.22,98.54l6.8,50.61c2.8,20.82,6.4,40.63,5.18,61.6,0,0,4.89,87-75.7,155.86l-13,9.43a1.84,1.84,0,0,1-3.06-1.94l32.49-78.63a339.69,339.69,0,0,0,24.11-115c2.72-37.81,7.07-83.8,1-121.21,0,0-15.64-147.61-146.24-192.14h0c-23.42-8.65-73.7-5.32-73.7-5.32-36.7,3.37-69.56,18.8-90,49.46h0c-28.23,42.35-36.83,95.11-22.31,143.9a193.81,193.81,0,0,0,23.57,50.82l5,7.64a24.46,24.46,0,0,1-.85,25.66L662.72,1551.17a3.6,3.6,0,0,0,3,5.59H745a12.69,12.69,0,0,0,8.57-3.34l4.7-4.3a11.34,11.34,0,0,1,8-3l89.54,2.69a14.34,14.34,0,0,0,6.84-1.51l5.69-2.85a20.39,20.39,0,0,0,10.7-23.06l-5-20.38a263.83,263.83,0,0,1,28.6-101.69l1.34-2.6a128.89,128.89,0,0,1,28.67-41.8h0a76.1,76.1,0,0,1,106.89.74h0c64.22,79.84-29.62,220.61-29.62,220.61,55,12.93,101,15.09,157.08,8.28l7.82-.95c68.63-8.33,134.18-34,189.48-75.51q2.1-1.58,4.18-3.18h0a287.62,287.62,0,0,0,51.71-51.5,631.47,631.47,0,0,0,60.78-94.67l1-2a257.52,257.52,0,0,0,26.19-79.51s16.91-52.91-6.76-165.09l-11.68-48.39a124.11,124.11,0,0,0-7.66-22.23c-22-65-37.15-162.27,14.93-283.56h0a420.58,420.58,0,0,1,82.9-125.54h0A4,4,0,0,0,1577.25,625.78Z" transform="translate(-23 -23)"/><path class="cls-5" d="M1023.51,73.34c-524.67,0-950,425.62-950,950.66s425.33,950.66,950,950.66,950-425.62,950-950.66S1548.19,73.34,1023.51,73.34Zm-.34,1851c-495.26,0-896.75-401.76-896.75-897.36s401.49-897.36,896.75-897.36,896.75,401.76,896.75,897.36S1518.43,1924.29,1023.17,1924.29Z" transform="translate(-23 -23)"/></svg>